<?xml version="1.0"?>
<svg xmlns="http://www.w3.org/2000/svg" xmlns:xlink="http://www.w3.org/1999/xlink" xmlns:svgjs="http://svgjs.com/svgjs" version="1.1" width="128" height="128" x="0" y="0" viewBox="0 0 64 64" style="enable-background:new 0 0 512 512" xml:space="preserve" class=""><g><g xmlns="http://www.w3.org/2000/svg"><path d="m24.642 19.713 1.916.574c.199-.666.422-1.312.66-1.922l-1.861-.73c-.259.661-.501 1.359-.715 2.078z" fill="#77d102" data-original="#000000" style="" class=""/><path d="m60 29c-1.302 0-2.402.839-2.816 2h-4.235c-.239-5.035-2.25-9.602-5.434-13.101l3.199-3.199c.392.187.824.3 1.286.3 1.654 0 3-1.346 3-3s-1.346-3-3-3-3 1.346-3 3c0 .462.113.894.301 1.285l-3.199 3.199c-3.5-3.184-8.067-5.195-13.101-5.434v-4.234c1.16-.414 1.999-1.514 1.999-2.816 0-1.654-1.346-3-3-3s-3 1.346-3 3c0 1.302.839 2.402 2 2.816v4.235c-5.035.239-9.602 2.25-13.101 5.434l-3.199-3.199c.187-.392.3-.824.3-1.286 0-1.654-1.346-3-3-3s-3 1.346-3 3 1.346 3 3 3c.462 0 .894-.113 1.285-.301l3.199 3.199c-3.184 3.5-5.195 8.067-5.434 13.101h-4.234c-.414-1.16-1.514-1.999-2.816-1.999-1.654 0-3 1.346-3 3s1.346 3 3 3c1.302 0 2.402-.839 2.816-2h4.235c.239 5.035 2.25 9.602 5.434 13.101l-3.199 3.199c-.392-.187-.824-.3-1.286-.3-1.654 0-3 1.346-3 3s1.346 3 3 3 3-1.346 3-3c0-.462-.113-.894-.301-1.285l3.199-3.199c3.5 3.184 8.067 5.195 13.101 5.434v4.235c-1.161.414-2 1.514-2 2.816 0 1.654 1.346 3 3 3s3-1.346 3-3c0-1.302-.839-2.402-2-2.816v-4.235c5.035-.239 9.602-2.25 13.101-5.434l3.199 3.199c-.186.391-.299.823-.299 1.285 0 1.654 1.346 3 3 3s3-1.346 3-3-1.346-3-3-3c-.462 0-.894.113-1.285.301l-3.199-3.199c3.184-3.5 5.195-8.067 5.434-13.101h4.235c.414 1.161 1.514 2 2.816 2 1.654 0 3-1.346 3-3s-1.347-3.001-3.001-3.001zm-31.918-12.53c1.191-2.238 2.582-3.47 3.918-3.47 2.369 0 4.925 4.009 6.191 10.385-1.951-.249-4.027-.385-6.191-.385-2.162 0-4.235.136-6.184.384.076-.387.142-.785.229-1.159l-1.949-.451c-.144.623-.264 1.274-.381 1.929-4.382.786-7.964 2.183-10.196 3.958 1.638-6.974 7.118-12.468 14.084-14.127-.432.549-.864 1.202-1.286 1.996zm10.918 15.53c0 2.348-.17 4.535-.457 6.543-1.427.204-2.939.351-4.543.416v-1.959c1.654 0 3-1.346 3-3 0-.771-.301-1.468-.78-2 .48-.532.78-1.229.78-2 0-1.654-1.346-3-3-3v-1.959c1.604.064 3.116.212 4.543.416.287 2.008.457 4.195.457 6.543zm-14 0c0-2.246.169-4.453.466-6.545 1.121-.16 2.302-.279 3.534-.354v1.899h-2v2h1v6h-1v2h2v1.899c-1.236-.076-2.419-.195-3.543-.356-.287-2.008-.457-4.195-.457-6.543zm10 2c0 .552-.448 1-1 1h-4v-2h4c.552 0 1 .448 1 1zm-1-3h-4v-2h4c.552 0 1 .448 1 1s-.448 1-1 1zm-2-4h-1v-1.979c.334-.007.66-.021 1-.021zm-1 10h1v2c-.34 0-.666-.014-1-.021zm-7.599-11.194c-.254 1.998-.401 4.08-.401 6.194 0 2.164.136 4.24.385 6.191-6.376-1.266-10.385-3.822-10.385-6.191 0-2.371 4.016-4.929 10.401-6.194zm.305 14.488c.786 4.378 2.183 7.956 3.956 10.187-6.994-1.642-12.5-7.149-14.143-14.143 2.231 1.774 5.809 3.17 10.187 3.956zm2.103.321c1.951.249 4.027.385 6.191.385s4.24-.136 6.191-.385c-1.266 6.376-3.822 10.385-6.191 10.385s-4.925-4.009-6.191-10.385zm14.485-.321c4.378-.786 7.956-2.183 10.187-3.956-1.642 6.994-7.149 12.5-14.143 14.143 1.774-2.231 3.17-5.809 3.956-10.187zm.321-2.103c.249-1.951.385-4.027.385-6.191s-.136-4.24-.385-6.191c6.376 1.266 10.385 3.822 10.385 6.191s-4.009 4.925-10.385 6.191zm-.321-14.485c-.786-4.378-2.183-7.956-3.956-10.187 6.994 1.642 12.5 7.149 14.143 14.143-2.231-1.774-5.809-3.17-10.187-3.956zm11.706-12.706c.552 0 1 .448 1 1s-.448 1-1 1-1-.448-1-1 .448-1 1-1zm-20-8c.552 0 1 .448 1 1s-.448 1-1 1-1-.448-1-1 .448-1 1-1zm-21 9c0-.552.448-1 1-1s1 .448 1 1-.448 1-1 1-1-.448-1-1zm-7 21c-.552 0-1-.448-1-1s.448-1 1-1 1 .448 1 1-.448 1-1 1zm8 20c-.552 0-1-.448-1-1s.448-1 1-1 1 .448 1 1-.448 1-1 1zm20 8c-.552 0-1-.448-1-1s.448-1 1-1 1 .448 1 1-.448 1-1 1zm21-9c0 .552-.448 1-1 1s-1-.448-1-1 .448-1 1-1 1 .448 1 1zm7-19c-.552 0-1-.448-1-1s.448-1 1-1 1 .448 1 1-.448 1-1 1z" fill="#77d102" data-original="#000000" style="" class=""/></g></g></svg>
